<?xml version="1.0" encoding="utf-8"?>
<!-- Generator: Adobe Illustrator 19.0.0, SVG Export Plug-In . SVG Version: 6.00 Build 0)  -->
<svg version="1.1" id="Layer_1" xmlns="http://www.w3.org/2000/svg" xmlns:xlink="http://www.w3.org/1999/xlink" x="0px" y="0px"
	 viewBox="0 0 1366 768" style="enable-background:new 0 0 1366 768;" xml:space="preserve">
<style type="text/css">
	.st0{fill:none;stroke:#000000;stroke-width:7;stroke-miterlimit:10;}
</style>
<g>
	<line class="st0" x1="36.5" y1="0.5" x2="36.5" y2="766.5"/>
</g>
<g>
	<line class="st0" x1="98.5" y1="1" x2="98.5" y2="767"/>
</g>
<g>
	<line class="st0" x1="154.5" y1="0" x2="154.5" y2="766"/>
</g>
<g>
	<line class="st0" x1="210.5" y1="-0.5" x2="210.5" y2="765.5"/>
</g>
<g>
	<line class="st0" x1="272.5" y1="0" x2="272.5" y2="766"/>
</g>
<g>
	<line class="st0" x1="328.5" y1="-1" x2="328.5" y2="765"/>
</g>
<g>
	<line class="st0" x1="384.5" y1="1.5" x2="384.5" y2="767.5"/>
</g>
<g>
	<line class="st0" x1="446.5" y1="2" x2="446.5" y2="768"/>
</g>
<g>
	<line class="st0" x1="502.5" y1="1" x2="502.5" y2="767"/>
</g>
<g>
	<line class="st0" x1="558.5" y1="0.5" x2="558.5" y2="766.5"/>
</g>
<g>
	<line class="st0" x1="620.5" y1="1" x2="620.5" y2="767"/>
</g>
<g>
	<line class="st0" x1="676.5" y1="0" x2="676.5" y2="766"/>
</g>
<g>
	<line class="st0" x1="734.5" y1="-1.5" x2="734.5" y2="764.5"/>
</g>
<g>
	<line class="st0" x1="796.5" y1="-1" x2="796.5" y2="765"/>
</g>
<g>
	<line class="st0" x1="852.5" y1="-2" x2="852.5" y2="764"/>
</g>
<g>
	<line class="st0" x1="908.5" y1="-2.5" x2="908.5" y2="763.5"/>
</g>
<g>
	<line class="st0" x1="970.5" y1="-2" x2="970.5" y2="764"/>
</g>
<g>
	<line class="st0" x1="1026.5" y1="-3" x2="1026.5" y2="763"/>
</g>
<g>
	<line class="st0" x1="1082.5" y1="-0.5" x2="1082.5" y2="765.5"/>
</g>
<g>
	<line class="st0" x1="1144.5" y1="0" x2="1144.5" y2="766"/>
</g>
<g>
	<line class="st0" x1="1200.5" y1="-1" x2="1200.5" y2="765"/>
</g>
<g>
	<line class="st0" x1="1256.5" y1="-1.5" x2="1256.5" y2="764.5"/>
</g>
<g>
	<line class="st0" x1="1318.5" y1="-1" x2="1318.5" y2="765"/>
</g>
</svg>
