<?xml version="1.0" encoding="utf-8"?>
<!-- Generator: Adobe Illustrator 19.0.0, SVG Export Plug-In . SVG Version: 6.00 Build 0)  -->
<svg version="1.1" id="Layer_1" xmlns="http://www.w3.org/2000/svg" xmlns:xlink="http://www.w3.org/1999/xlink" x="0px" y="0px"
	 viewBox="-45 69 869 163" style="enable-background:new -45 69 869 163;" xml:space="preserve">
<style type="text/css">
	.st0{fill:none;stroke:#000000;stroke-miterlimit:10;}
	.st1{font-family:'Arial-BoldItalicMT';}
	.st2{font-size:42px;}
</style>
<path class="st0" d="M-18.8,81.5H-3h16.7h15.8h16.7l-1.7,11l-1.7,11h-8.4H24.2h-9.8H5.5l-1.1,8.7l-1.1,8.7h15.4h15.4l-1.1,9.8
	l-1.1,9.8h-16H6.7h-6.7L-2,150.6l-1.9,10.1l-2,10.2l-1.9,10H-21h-13.2l2.1-13.7l1.8-11.7l1.9-12.5l1.8-11.8l2.4-15.5l1.4-8.9
	l2.3-14.8L-18.8,81.5z"/>
<path class="st0" d="M331.2,81.5H347h16.7h15.8h16.7l-1.7,11l-1.7,11h-8.4h-10.3h-9.8h-8.9l-1.1,8.7l-1.1,8.7h15.4h15.4l-1.1,9.8
	l-1.1,9.8h-16h-9.3h-6.7l-1.9,10.1l-1.9,10.1l-2,10.2l-1.9,10H329h-13.2l2.1-13.7l1.8-11.7l1.9-12.5l1.8-11.8l2.4-15.5l1.4-8.9
	l2.3-14.8L331.2,81.5z"/>
<path class="st0" d="M54.4,136.3L38,134.9c1.9-5.5,5.1-9.9,9.8-13c4.7-3.1,10.8-4.7,18.5-4.7c8,0,13.9,1.6,17.8,4.8
	c3.8,3.2,5.7,7.2,5.7,11.8c0,1.9-0.2,3.9-0.5,6c-0.3,2.1-1.5,7.7-3.5,16.6c-1.6,7.4-2.5,12.6-2.5,15.6c0,2.7,0.5,5.6,1.4,8.8H68.4
	c-0.7-2.3-1.1-4.6-1.2-7c-2.5,2.7-5.3,4.8-8.5,6.3c-3.2,1.5-6.4,2.2-9.7,2.2c-5.2,0-9.4-1.7-12.8-5.1c-3.4-3.4-5-7.7-5-13
	c0-5.9,1.8-10.7,5.5-14.2c3.7-3.6,10.3-5.7,19.8-6.4c8-0.7,13.4-1.5,16.1-2.4c0.7-2.3,1.1-4.2,1.1-5.6c0-1.8-0.7-3.3-2.2-4.5
	c-1.4-1.2-3.6-1.8-6.4-1.8c-3,0-5.4,0.6-7.1,1.8C56.2,132.3,55,134.1,54.4,136.3z M70.4,151.9c-1,0.3-2.4,0.5-4,0.8
	c-8.4,1-13.9,2.5-16.5,4.5c-1.8,1.4-2.8,3.3-2.8,5.7c0,2,0.7,3.6,2.1,5s3.3,2,5.6,2c2.5,0,4.9-0.6,7.2-1.8c2.2-1.2,3.9-2.8,5-4.7
	c1.1-1.9,2.1-5,3-9.1L70.4,151.9z"/>
<path class="st0" d="M136.6,157.5l16.3,2.6c-2.7,7.3-6.7,12.8-12,16.6c-5.3,3.8-11.4,5.7-18.3,5.7c-7.9,0-14.2-2.4-18.9-7.1
	c-4.6-4.7-7-11.2-7-19.5c0-6.8,1.4-13.1,4.2-19.2c2.8-6,7.1-10.8,12.7-14.2c5.7-3.5,11.9-5.2,18.6-5.2c7.3,0,13.2,1.9,17.6,5.7
	c4.4,3.8,6.8,8.9,7.4,15.1l-16,1.7c-0.4-3.5-1.5-6-3.2-7.7c-1.7-1.6-4-2.5-6.8-2.5c-3.2,0-6.3,1.2-9.1,3.6c-2.8,2.4-5,6-6.5,10.9
	c-1.5,4.8-2.3,9.3-2.3,13.6c0,3.7,0.9,6.5,2.7,8.5c1.8,2,4,3,6.7,3s5.3-1,7.8-2.9C133.2,164.3,135.1,161.4,136.6,157.5z"/>
<path class="st0" d="M162.3,131.2l2.6-12.5h8.2l2.1-10l19.3-11.6l-4.5,21.6h10.3l-2.6,12.5h-10.3l-5.4,26.1c-1,4.7-1.5,7.4-1.5,8.1
	c0,1.3,0.4,2.3,1.2,3c0.8,0.7,2.3,1.1,4.5,1.1c0.7,0,2.6-0.1,5.6-0.4l-2.6,12.5c-2.9,0.6-5.9,0.9-8.9,0.9c-5.9,0-10.3-1.1-12.9-3.4
	s-4-5.5-4-9.5c0-1.9,0.7-6.3,2.2-13.2l5.2-25L162.3,131.2L162.3,131.2z"/>
<path class="st0" d="M197.5,155.1c0-11.5,3.3-20.7,9.8-27.6c6.5-6.9,15-10.3,25.6-10.3c9.2,0,16.3,2.5,21.5,7.6
	c5.2,5.1,7.7,11.9,7.7,20.4c0,10.1-3.2,18.8-9.7,26.1c-6.4,7.3-15.1,11-25.9,11c-5.9,0-11.1-1.2-15.6-3.5c-4.5-2.3-7.9-5.7-10.1-10
	C198.6,164.6,197.5,160,197.5,155.1z M245.5,143.1c0-4-1.2-7.2-3.5-9.6c-2.3-2.4-5.3-3.6-9-3.6c-3.6,0-6.9,1.1-9.7,3.4
	c-2.8,2.2-5,5.5-6.6,9.8c-1.6,4.3-2.3,8.2-2.3,11.8c0,4.5,1.2,8,3.6,10.6c2.4,2.6,5.5,3.9,9.1,3.9c4.6,0,8.5-2,11.6-5.9
	C243.2,157.9,245.5,151.1,245.5,143.1z"/>
<path class="st0" d="M277.4,118.7h15.7l-2.5,12.1c5.9-9,12.2-13.5,19-13.5c2.4,0,5,0.6,7.8,1.8l-6.4,13.8c-1.5-0.5-3.1-0.8-4.9-0.8
	c-2.9,0-5.8,1.1-8.8,3.3c-3,2.2-5.3,5.1-7,8.8c-1.7,3.7-3.3,9.4-5,17.4l-4.1,19.5h-16.8L277.4,118.7z"/>
<path class="st0" d="M396.6,118.7h16.8l-13,62.2h-16.8L396.6,118.7z M401.6,95h16.8l-3.2,15.2h-16.8L401.6,95z"/>
<path class="st0" d="M427.2,118.7h15.9l-1.6,8.1c4-3.4,7.7-5.9,11.2-7.4c3.5-1.5,7.1-2.2,10.9-2.2c5.1,0,9.2,1.5,12.1,4.4
	c2.9,2.9,4.4,6.8,4.4,11.7c0,2.2-0.6,6.3-1.9,12.4l-7.3,35.2H454l7.4-35.3c1.1-5.3,1.6-8.4,1.6-9.4c0-2.1-0.6-3.8-1.9-5.1
	c-1.3-1.2-3-1.8-5.3-1.8c-2.5,0-5.2,1-8.2,3.1c-3,2.1-5.4,4.8-7.1,8.2c-1.2,2.4-2.7,7.4-4.2,14.8l-5.3,25.5h-16.8L427.2,118.7z"/>
<path class="st0" d="M508,136.3l-16.4-1.4c1.9-5.5,5.1-9.9,9.8-13c4.7-3.1,10.8-4.7,18.5-4.7c8,0,13.9,1.6,17.8,4.8
	c3.8,3.2,5.7,7.2,5.7,11.8c0,1.9-0.2,3.9-0.5,6c-0.3,2.1-1.5,7.7-3.5,16.6c-1.6,7.4-2.5,12.6-2.5,15.6c0,2.7,0.5,5.6,1.4,8.8h-16.3
	c-0.7-2.3-1.1-4.6-1.2-7c-2.5,2.7-5.3,4.8-8.5,6.3c-3.2,1.5-6.4,2.2-9.7,2.2c-5.2,0-9.4-1.7-12.8-5.1c-3.4-3.4-5-7.7-5-13
	c0-5.9,1.8-10.7,5.5-14.2c3.7-3.6,10.3-5.7,19.8-6.4c8-0.7,13.4-1.5,16.1-2.4c0.7-2.3,1.1-4.2,1.1-5.6c0-1.8-0.7-3.3-2.2-4.5
	c-1.4-1.2-3.6-1.8-6.4-1.8c-3,0-5.4,0.6-7.1,1.8C509.8,132.3,508.6,134.1,508,136.3z M524,151.9c-1,0.3-2.4,0.5-4,0.8
	c-8.4,1-13.9,2.5-16.5,4.5c-1.8,1.4-2.8,3.3-2.8,5.7c0,2,0.7,3.6,2.1,5s3.3,2,5.6,2c2.5,0,4.9-0.6,7.2-1.8c2.2-1.2,3.9-2.8,5-4.7
	c1.1-1.9,2.1-5,3-9.1L524,151.9z"/>
<path class="st0" d="M561.2,118.7h15.9l-1.6,8.1c4-3.4,7.7-5.9,11.2-7.4c3.5-1.5,7.1-2.2,10.9-2.2c5.1,0,9.2,1.5,12.1,4.4
	c2.9,2.9,4.4,6.8,4.4,11.7c0,2.2-0.6,6.3-1.9,12.4l-7.3,35.2h-16.8l7.4-35.3c1.1-5.3,1.6-8.4,1.6-9.4c0-2.1-0.6-3.8-1.9-5.1
	c-1.3-1.2-3-1.8-5.3-1.8c-2.5,0-5.2,1-8.2,3.1c-3,2.1-5.4,4.8-7.1,8.2c-1.2,2.4-2.7,7.4-4.2,14.8l-5.3,25.5h-16.8L561.2,118.7z"/>
<path class="st0" d="M660.5,157.5l16.3,2.6c-2.7,7.3-6.7,12.8-12,16.6c-5.3,3.8-11.4,5.7-18.3,5.7c-7.9,0-14.2-2.4-18.9-7.1
	c-4.6-4.7-7-11.2-7-19.5c0-6.8,1.4-13.1,4.2-19.2c2.8-6,7-10.8,12.7-14.2c5.7-3.5,11.9-5.2,18.6-5.2c7.3,0,13.2,1.9,17.6,5.7
	c4.4,3.8,6.8,8.9,7.4,15.1l-16,1.7c-0.4-3.5-1.5-6-3.2-7.7c-1.7-1.6-4-2.5-6.8-2.5c-3.2,0-6.3,1.2-9.1,3.6c-2.8,2.4-5,6-6.5,10.9
	c-1.5,4.8-2.3,9.3-2.3,13.6c0,3.7,0.9,6.5,2.7,8.5c1.8,2,4,3,6.7,3s5.3-1,7.8-2.9C657.1,164.3,659.1,161.4,660.5,157.5z"/>
<path class="st0" d="M695.1,118.7h16.8l-13,62.2H682L695.1,118.7z M700,95h16.8l-3.2,15.2h-16.8L700,95z"/>
<path class="st0" d="M736.1,136.3l-16.4-1.4c1.9-5.5,5.1-9.9,9.8-13c4.7-3.1,10.8-4.7,18.5-4.7c8,0,13.9,1.6,17.8,4.8
	c3.8,3.2,5.7,7.2,5.7,11.8c0,1.9-0.2,3.9-0.5,6c-0.3,2.1-1.5,7.7-3.5,16.6c-1.6,7.4-2.5,12.6-2.5,15.6c0,2.7,0.5,5.6,1.4,8.8h-16.3
	c-0.7-2.3-1.1-4.6-1.2-7c-2.5,2.7-5.3,4.8-8.5,6.3c-3.2,1.5-6.4,2.2-9.7,2.2c-5.2,0-9.4-1.7-12.8-5.1c-3.4-3.4-5-7.7-5-13
	c0-5.9,1.8-10.7,5.5-14.2c3.7-3.6,10.3-5.7,19.8-6.4c8-0.7,13.4-1.5,16.1-2.4c0.7-2.3,1.1-4.2,1.1-5.6c0-1.8-0.7-3.3-2.2-4.5
	c-1.4-1.2-3.6-1.8-6.4-1.8c-3,0-5.4,0.6-7.1,1.8C737.9,132.3,736.7,134.1,736.1,136.3z M752.1,151.9c-1,0.3-2.4,0.5-4,0.8
	c-8.4,1-13.9,2.5-16.5,4.5c-1.8,1.4-2.8,3.3-2.8,5.7c0,2,0.7,3.6,2.1,5s3.3,2,5.6,2c2.5,0,4.9-0.6,7.2-1.8c2.2-1.2,3.9-2.8,5-4.7
	c1.1-1.9,2.1-5,3-9.1L752.1,151.9z"/>
<path class="st0" d="M776,180.9L794,95h16.8l-17.9,85.9H776z"/>
<rect x="579.4" y="187.6" class="st0" width="584.1" height="91.4"/>
<text transform="matrix(1 0 0 1 579.4302 217.6523)" class="st0 st1 st2">SERVICES</text>
</svg>
