<?xml version="1.0" encoding="utf-8"?>
<!-- Generator: Adobe Illustrator 19.0.0, SVG Export Plug-In . SVG Version: 6.00 Build 0)  -->
<svg version="1.1" id="Layer_1" xmlns="http://www.w3.org/2000/svg" xmlns:xlink="http://www.w3.org/1999/xlink" x="0px" y="0px"
	 viewBox="0 0 960 300" style="enable-background:new 0 0 960 300;" xml:space="preserve">
<style type="text/css">
	.st0{fill:none;stroke:#223843;stroke-width:3;stroke-miterlimit:10;}
	.st1{fill:none;stroke:#223843;stroke-width:6;stroke-miterlimit:10;}
	.st2{fill:none;stroke:#ACCBE1;stroke-width:6;stroke-miterlimit:10;}
</style>
<path id="XMLID_1_" class="st0" d="M127.755,228.263c-3.038-5.27-44.59-79.805-4.402-130.96c39.262-49.975,132.104-46.534,167.276,0
	c28.718,37.995,9.373,91.999,3.301,108.95c-5.1,14.238-28.966,80.863-79.236,84.739C166.082,294.739,132.64,236.735,127.755,228.263
	z"/>
<path id="XMLID_2_" class="st1" d="M394.716,25.005c-5.167,4.485-26.139,23.594-8.112,33.1c13.972,7.368,44.913,5.56,92.712,2.508
	c76.546-4.889,92.687-13.076,110.096-8.024c23.508,6.822,18.799,28.926,10.43,68.207c-5.054,23.724-12.206,36.538,6.953,45.137
	c14.789,6.638,36.764,6.954,54.302,7.206c47.082,0.677,108.513-9.301,111.421-23.756c1.909-9.491-21.431-20.816-41.72-21.064
	c-5.657-0.069-13.815,1.793-30.131,5.517c-19.09,4.357-28.711,6.595-32.449,9.529c-8.35,6.553,0.246,14.912,3.477,18.055
	c12.64,12.292,35.3,17.2,59.104,24.575c7.13,2.209,83.924,26,77.646,37.614c-6.447,11.927-102.998,15.62-188.901,11.033
	c-148.159-7.911-238.001-39.033-403.297-96.292c-37.628-13.035-87.003-31.305-88.076-55.669
	c-0.166-3.768-0.932-21.151,27.814-31.596c18.263-6.636,39.67-7.285,47.515-7.523c23.074-0.7,53.175,2.18,69.534,10.03
	c34.954,16.775,10.266,57.732-45.197,78.739c-52.841,20.013-106.331,11.583-120.526,25.578
	c-22.772,22.451,80.608,77.953,143.704,71.216C351.49,218.395,261.368,59.276,421.371,24.002
	c83.644-18.44,217.16,1.04,244.528,31.094c38.149,41.894-141.128,92.062-101.983,120.365c29.219,21.127,166.854,20.466,209.761-6.52
	c13.857-8.715,25.735-25.145,9.271-38.116c-1.328-1.047-15.992-12.212-41.72-13.541c-20.312-1.049-36.358,4.61-60.263,13.04
	c-18.607,6.562-27.911,9.842-32.449,15.046c-14.534,16.663,23.783,35.556,28.973,38.116c7.13,3.516,11.28,4.694,42.879,14.544
	c69.237,21.583,72.54,23.168,71.852,24.575c-3.469,7.094-107.937,8.711-216.714-1.505
	C308.018,195.978,144.544,111.518,149.029,83.683c2.633-16.339,23.178-24.073,23.178-24.073c13.098-4.93,27.981-5.844,31.29-6.018
	c4.57-0.241,25.041-1.322,40.562,4.514c12.431,4.674,14.689,11.155,16.225,16.049c3.902,12.433-5.834,22.678-10.43,27.082
	c-30.009,28.756-71.011,29.002-95.03,54.164c-6.292,6.591-19.144,20.621-6.953,35.608c10.455,12.853,39.971,27.197,71.852,26.079
	c36.487-1.279,56.345-22.118,64.898-31.094c22.338-23.442,11.426-39.69,11.589-62.69c0.125-17.718,0.508-71.829,77.646-98.8
	c58.908-20.596,146.597-19.777,208.602-9.027c27.582,4.782,90.893,15.758,104.301,38.617
	c24.697,42.105-144.661,82.324-115.89,110.335c6.683,6.506,25.791,14.044,83.441,16.55c103.68,20.1,194.474,12.272,210.92-3.511
	c15.772-15.136-27.051-46.974-115.89-68.207"/>
<path id="XMLID_3_" class="st2" d="M200.79,121.625c77.466-16.717,156.968-17.235,192.588-2.927
	c22.664,9.104,25.676,23.452,27.513,32.202c3.946,18.798-11.949,32.954-19.809,39.73c-15.235,13.133-44.601,30.131-56.126,28.438
	c-9.455-1.389-12.284-16.147,9.905-24.674c23.722-9.117,66.331-7.38,80.337-0.418c19.65,9.767-4.775,35.893-51.724,38.893
	c-27.172,1.736-57.19-4.574-69.332-14.219c-17.565-13.953,10.05-28.72,28.613-35.129c25.202-8.702,72.457-15.374,106.749-6.273
	c33.356,8.853,32.398,26.779,25.312,36.802c-1.121,1.585-15.605,20.794-63.829,26.347c-44.618,5.138-82.186-5.551-93.543-8.782
	c-12.845-3.655-34.927-9.739-40.719-19.656c-11.243-19.25,46.007-40.002,96.844-48.094c9.615-1.531,76.369-12.156,111.151,0
	c19.673,6.876,18.899,17.468,17.608,35.129c-1.576,21.566-2.808,38.433-36.317,49.348c-33.867,11.033-79.735,9.155-99.045,8.364
	c-11.752-0.481-74.7-3.553-113.352-24.256c-6.614-3.543-42.26-23.533-23.111-39.311c4.646-3.828,18.2-8.18,45.121-16.728
	c27.988-8.887,41.982-13.331,56.126-16.728c47.914-11.508,97.81-13.138,121.055-13.801c16.421-0.468,39.674,1.06,86.11,3.628
	c49.75,2.751,58.877,4.144,75.664,4.736c32.651,1.152,79.912-1.236,141.965-17.565c-3.842-0.529-9.026-1.226-15.185-2.007
	c-92.206-11.692-167.698-12.278-167.498-13.466c0.185-1.101,63.802,6.046,121.055-5.018c58.539-11.313,77.49-35.762,87.875-33.394
	c23.438,5.345-39.872,38.953,0,73.451c15.364,13.294,47.725,28.17,68.418,26c30.184-3.165,58.094-44.963,0-64.446
	c-20.529-6.885-64.011-4.533-149.118,0c-70.273,3.743-122.65,8.448-199.853,6.759c-43.889-0.96-63.974-3.29-72.542-9.207
	c-15.933-11.003,17.667-27.7,20.91-29.274"/>
</svg>
