<?xml version="1.0" encoding="utf-8"?>
<!-- Generator: Adobe Illustrator 19.0.0, SVG Export Plug-In . SVG Version: 6.00 Build 0)  -->
<svg version="1.1" id="Layer_1" xmlns="http://www.w3.org/2000/svg" xmlns:xlink="http://www.w3.org/1999/xlink" x="0px" y="0px"
	 viewBox="0 0 960 560" style="enable-background:new 0 0 960 560;" xml:space="preserve">
<style type="text/css">
	.st0{fill:#FFFFFF;stroke:#000000;stroke-width:2;stroke-miterlimit:10;}
	.st1{fill:#FFFFFF;stroke:#20BF55;stroke-miterlimit:10;}
	.st2{fill:#FFFFFF;stroke:#0B4F6C;stroke-miterlimit:10;}
</style>
<path id="XMLID_2_" class="st0" d="M208.843,297.224l95.526-141.151c0,0,74.177,138.027,72.875,139.329
	c-1.302,1.302,141.92-214.833,141.92-214.833l6.51,433.572l192.699-218.739l-101.557-135.41l-42.967,58.591l-58.591-93.745
	l1.302,195.303l-339.827-1.302"/>
<polyline id="XMLID_1_" class="st1" points="283.631,285.031 357.598,193.056 410.966,267.539 505.434,148.008 412.28,260.435 
	366.024,168.743 260.658,304.5 500,304.5 496.459,302.186 "/>
<polyline id="XMLID_4_" class="st2" points="518.304,191.032 520.874,413.34 637.168,282.91 580.627,205.809 550.429,238.577 
	520.874,196.814 520.945,201.31 520.976,203.258 524.086,400.49 628.815,284.195 580.627,216.089 551.714,246.287 523.444,207.737 
	522.801,210.307 "/>
</svg>
